<svg width="74" height="26" viewBox="0 0 74 26" fill="none" xmlns="http://www.w3.org/2000/svg">
<path d="M38.2061 6.59203V18.2284H36.797V8.0693H36.7288L33.8879 9.95567V8.52385L36.797 6.59203H38.2061Z" fill="#4F4C57"/>
<path d="M16.5363 12.6852H8.34912" stroke="white" stroke-linecap="round"/>
<path d="M12.4427 23.0658C18.0947 23.0658 22.6766 18.4182 22.6766 12.6852C22.6766 6.95213 18.0947 2.30457 12.4427 2.30457C6.79063 2.30457 2.20874 6.95213 2.20874 12.6852C2.20874 18.4182 6.79063 23.0658 12.4427 23.0658Z" stroke="#937DC2"/>
<path d="M61.5656 8.53296V12.6852M61.5656 12.6852V16.8375M61.5656 12.6852H65.6592M61.5656 12.6852H57.472" stroke="white" stroke-linecap="round"/>
<path d="M61.5656 23.0658C67.2177 23.0658 71.7995 18.4182 71.7995 12.6852C71.7995 6.95213 67.2177 2.30457 61.5656 2.30457C55.9136 2.30457 51.3317 6.95213 51.3317 12.6852C51.3317 18.4182 55.9136 23.0658 61.5656 23.0658Z" stroke="#937DC2"/>
</svg>
